<?xml version="1.0" encoding="utf-8"?>
<!-- Generator: Adobe Illustrator 16.0.3, SVG Export Plug-In . SVG Version: 6.00 Build 0)  -->
<!DOCTYPE svg PUBLIC "-//W3C//DTD SVG 1.1//EN" "http://www.w3.org/Graphics/SVG/1.1/DTD/svg11.dtd">
<svg version="1.1" id="Layer_1" xmlns="http://www.w3.org/2000/svg" xmlns:xlink="http://www.w3.org/1999/xlink" x="0px" y="0px"
	 width="1203.743px" height="500.125px" viewBox="0 0 1203.743 500.125" enable-background="new 0 0 1203.743 500.125"
	 xml:space="preserve">
<path id="XMLID_25_" display="none" fill="none" stroke="#010202" stroke-width="100.025" stroke-miterlimit="10" d="
	M712.179,412.565c-88.217,0-159.713-70.518-159.713-157.508S623.962,97.592,712.179,97.592s159.715,70.516,159.715,157.506"/>
<g id="XMLID_11_">
</g>
<g id="XMLID_6_">
</g>
<g id="XMLID_56_">
</g>
<g id="XMLID_57_">
</g>
<g id="XMLID_58_">
</g>
<g id="XMLID_59_">
</g>
<g id="XMLID_60_">
</g>
<g>
	<g>
		<path id="XMLID_32_" fill="#FF0000" d="M851.888,265.43c17.627,0,31.934,14.233,31.934,31.787s-14.307,31.787-31.934,31.787
			s-31.934-14.233-31.934-31.787S834.261,265.43,851.888,265.43z"/>
		<path id="XMLID_27_" fill="#FF0000" d="M944.661,303.564c-0.732,10.327-3.125,20.19-6.982,29.346l253.809,53.467l4.395-17.578
			L944.661,303.564z"/>
		<g id="XMLID_7_">
			<path id="XMLID_20_" fill="#FF0000" d="M639.51,198.315c7.52-18.994,17.163-36.963,28.589-53.394l-6.299-7.251
				C651.351,156.665,643.758,177.002,639.51,198.315z"/>
			<path id="XMLID_24_" fill="#FF0000" d="M698.909,87.378c-9.033,9.375-17.139,19.385-24.512,29.883l7.91,8.984
				c5.273-6.274,10.791-12.305,16.602-18.042V87.378z"/>
		</g>
		<path id="XMLID_13_" fill="#FF0000" d="M1123.226,315.161c0.439-6.177,0.635-12.476,0.635-18.75
			c0-143.481-112.793-260.181-251.465-260.181c-56.689,0-109.033,19.458-151.123,52.344V66.748C771.468,25.415,839.729,0,914.974,0
			c95.459,0,182.568,38.916,230.225,103.516c13.672,18.506,23.779,39.404,32.666,61.011c17.139,41.797,25.879,86.133,25.879,131.885
			c0,8.032-0.244,16.064-0.83,23.999l0.098-1.025c-0.977,15.479-3.027,30.762-6.055,45.85l-77.441-20.215
			c1.807-10.156,3.174-20.557,3.809-31.03L1123.226,315.161z"/>
		<path id="XMLID_12_" d="M1047.054,308.74c-0.293,5.713-0.928,11.353-1.807,16.919l38.818,10.083
			c1.318-8.008,2.295-16.113,2.783-24.292l-0.098,1.27c0.342-5.176,0.586-10.327,0.586-15.503
			c0.049-61.646-24.512-119.482-69.092-163.037c-39.648-38.77-91.016-61.963-146.24-66.479l-3.516,39.551
			c100.049,8.252,178.906,90.332,178.906,189.966c0,4.297-0.146,8.569-0.488,12.866L1047.054,308.74z"/>
		<g>
			<g id="XMLID_9_">
				<path id="XMLID_18_" d="M971.224,305.078c0.244-2.612,0.342-5.225,0.342-7.861c0-60.303-48.389-109.888-109.717-114.795
					l3.516-39.575c81.738,6.665,146.191,73.34,146.094,154.37c0,3.491-0.146,6.982-0.391,10.498l0.146-1.44
					c-0.195,3.418-0.537,6.836-0.928,10.156l-39.063-10.156c0.098-0.879,0.098-1.831,0.146-2.71L971.224,305.078z"/>
			</g>
		</g>
		<g id="XMLID_1_">
			<path id="XMLID_44_" d="M12.483,11.914h18.823l37.524,131.567L121.37,11.914h3.833l51.978,131.567L215.34,11.914h18.677
				l-52.686,182.568h-3.442L123.445,56.323L67.952,194.482h-3.418L12.483,11.914z"/>
			<path id="XMLID_47_" d="M268.099,11.914h18.384v165.015h70.557v17.651h-88.94V11.914z"/>
			<path id="XMLID_51_" d="M461.067,11.914l85.596,182.568h-19.8l-28.809-60.059h-79.053l-28.589,60.059h-20.435L456.6,11.914
				H461.067z M458.772,50.684l-31.47,66.113h62.769L458.772,50.684z"/>
			<path id="XMLID_54_" d="M575.179,194.482V11.914h3.979l122.144,139.99V11.914h18.115v182.568h-4.15L594.173,56.25v138.232
				H575.179z"/>
		</g>
		<path id="XMLID_16_" d="M11.189,211.572h95.093v32.104H74.91v139.038H41.683V243.677H11.189V211.572z"/>
		<path id="XMLID_19_" d="M128.548,211.572h33.228v64.575h57.471v-64.575h33.13v171.191h-33.13v-75.049h-57.471v75.049h-33.228
			V211.572z"/>
		<path id="XMLID_30_" d="M291.756,211.572h93.872v31.86h-61.401v30.981h61.401v31.299h-61.401v45.068h61.401v31.982h-93.872
			V211.572z"/>
		<path id="XMLID_36_" d="M418.367,211.572h34.741c18.994,0,32.471,1.66,40.552,5.078c8.057,3.418,14.526,8.984,19.458,16.846
			c4.883,7.861,7.349,17.09,7.349,27.808c0,11.279-2.71,20.654-8.13,28.198c-5.42,7.568-13.574,13.281-24.512,17.163l40.723,76.099
			h-35.767l-38.721-72.51h-3.052v72.51h-32.715V211.572H418.367z M451.106,278.467h10.278c10.4,0,17.578-1.367,21.484-4.053
			s5.908-7.227,5.908-13.501c0-3.735-0.952-6.982-2.954-9.766c-1.904-2.783-4.541-4.785-7.813-5.957
			c-3.271-1.196-9.277-1.831-17.969-1.831h-8.936V278.467L451.106,278.467z"/>
		<path id="XMLID_39_" d="M571.81,211.572h31.934l39.917,119.434l40.259-119.434h31.836l28.809,171.143h-31.689l-18.408-108.154
			l-36.572,108.154h-28.833l-36.255-108.154l-18.921,108.154h-31.934L571.81,211.572z"/>
		<path id="XMLID_41_" d="M851.888,207.202c24.365,0,45.264,8.74,62.744,26.294s26.27,38.94,26.27,64.111
			c0,24.951-8.643,46.143-25.928,63.379c-17.285,17.334-38.281,26.025-62.939,26.025c-25.781,0-47.266-8.936-64.355-26.611
			c-17.09-17.822-25.635-38.867-25.635-63.33c0-16.382,4.004-31.47,11.963-45.142c8.008-13.672,18.945-24.634,32.861-32.642
			C820.833,211.255,835.774,207.202,851.888,207.202z M851.497,239.136c-15.918,0-29.346,5.493-40.186,16.528
			s-16.26,25.024-16.26,42.017c0,18.921,6.836,33.911,20.508,44.897c10.596,8.594,22.754,12.939,36.475,12.939
			c15.576,0,28.76-5.566,39.697-16.748c10.938-11.206,16.357-24.951,16.357-41.309c0-16.309-5.518-30.103-16.553-41.406
			C880.647,244.775,867.269,239.136,851.497,239.136z"/>
	</g>
	<g>
		<g>
			<path stroke="#000000" stroke-width="0.25" stroke-miterlimit="10" d="M509.547,501h-67.529c-6.494,0-11.865-2.148-16.113-6.494
				c-4.272-4.297-6.396-9.668-6.396-16.016c0-1.807,0.195-3.564,0.562-5.371l14.307-67.529h18.921l-13.989,66.992
				c-0.098,0.635-0.146,1.172-0.146,1.709c0,2.148,0.684,3.955,2.1,5.42c1.392,1.465,3.174,2.197,5.322,2.197h66.992L509.547,501z"
				/>
			<path stroke="#000000" stroke-width="0.25" stroke-miterlimit="10" d="M547.535,501h-19.116l20.215-95.41h19.116L547.535,501z"/>
			<path stroke="#000000" stroke-width="0.25" stroke-miterlimit="10" d="M674.22,501h-19.116l14.185-66.992
				c0.098-0.635,0.146-1.27,0.146-1.904c0-2.148-0.732-3.955-2.148-5.322c-1.465-1.416-3.271-2.1-5.42-2.1h-47.754L597.926,501
				H578.81l20.239-95.41h67.554c6.494,0,11.816,2.197,16.113,6.494c4.248,4.346,6.396,9.619,6.396,15.82
				c0,1.904-0.195,3.76-0.586,5.566L674.22,501z"/>
			<path fill-rule="evenodd" clip-rule="evenodd" stroke="#000000" stroke-miterlimit="10" d="M814.82,405.066
				c-8.723,0-17.447,0.121-26.166-0.064c-3.142-0.067-5.77,0.695-8.299,2.462c-4.734,3.309-9.541,6.516-14.346,9.722
				c-10.79,7.197-21.597,14.368-33.066,21.994c2.476-11.774,4.791-22.792,7.138-33.957c-6.337,0-12.451,0-18.71,0
				c-6.654,31.254-13.283,62.385-19.926,93.583c6.718,0,12.783,0,18.838,0c2.218-10.764,4.342-21.224,6.562-31.662
				c0.261-1.224,0.732-2.779,1.643-3.426c5.868-4.171,11.887-8.131,18.084-12.313c2.894,4.863,5.589,9.391,8.282,13.919
				c6.34,10.659,12.664,21.326,19.05,31.957c0.449,0.749,1.335,1.736,2.038,1.752c6.062,0.139,12.127,0.08,18.93,0.08
				c-11.553-19.57-22.691-38.44-33.833-57.313c18.16-12.108,36.033-24.025,53.906-35.943
				C814.903,405.593,814.862,405.329,814.82,405.066z"/>
		</g>
		<polygon points="0,444.591 384.667,444.09 379,469.893 0,468.893 		"/>
		<polygon points="1204,467.088 819.167,467.589 824.916,441.786 1204,442.786 		"/>
	</g>
</g>
</svg>
