<?xml version="1.0" encoding="utf-8"?>
<!-- Generator: Adobe Illustrator 16.0.3, SVG Export Plug-In . SVG Version: 6.00 Build 0)  -->
<!DOCTYPE svg PUBLIC "-//W3C//DTD SVG 1.1//EN" "http://www.w3.org/Graphics/SVG/1.1/DTD/svg11.dtd">
<svg version="1.1" id="Layer_1" xmlns="http://www.w3.org/2000/svg" xmlns:xlink="http://www.w3.org/1999/xlink" x="0px" y="0px"
	 width="1000px" height="1000px" viewBox="0 0 1000 1000" enable-background="new 0 0 1000 1000" xml:space="preserve">
<path id="XMLID_25_" display="none" fill="none" stroke="#010202" stroke-width="100.025" stroke-miterlimit="10" d="
	M610.179,661.977c-88.217,0-159.713-70.518-159.713-157.508s71.496-157.465,159.713-157.465S769.894,417.52,769.894,504.51"/>
<g id="XMLID_11_">
</g>
<g id="XMLID_6_">
</g>
<g id="XMLID_56_">
</g>
<g id="XMLID_57_">
</g>
<g id="XMLID_58_">
</g>
<g id="XMLID_59_">
</g>
<g id="XMLID_60_">
</g>
<g>
	<path id="XMLID_20_" fill="#E10613" d="M479.913,493.377c0.861-2.335,1.966-4.541,3.271-6.563l-0.721-0.89
		C481.268,488.26,480.398,490.758,479.913,493.377z"/>
	<path id="XMLID_24_" fill="#E10613" d="M486.713,479.743c-1.032,1.152-1.966,2.383-2.806,3.673l0.904,1.102
		c0.603-0.771,1.234-1.512,1.902-2.217V479.743z"/>
	<path id="XMLID_32_" fill="#E10613" d="M504.223,501.629c2.017,0,3.653,1.751,3.653,3.905c0,2.158-1.637,3.908-3.653,3.908
		c-2.021,0-3.656-1.75-3.656-3.908C500.567,503.38,502.202,501.629,504.223,501.629z"/>
	<path id="XMLID_27_" fill="#E10613" d="M514.839,506.318c-0.083,1.27-0.356,2.48-0.796,3.604l29.049,6.571l0.505-2.157
		L514.839,506.318z"/>
	<path id="XMLID_13_" fill="#E10613" d="M535.28,507.744c0.048-0.762,0.073-1.532,0.073-2.306c0-17.637-12.91-31.985-28.783-31.985
		c-6.489,0-12.485,2.395-17.3,6.438v-2.688c5.75-5.076,13.562-8.203,22.168-8.203c10.93,0,20.9,4.785,26.354,12.726
		c1.564,2.275,2.722,4.845,3.738,7.5c1.963,5.138,2.961,10.587,2.961,16.213c0,0.987-0.029,1.973-0.093,2.95l0.011-0.13
		c-0.109,1.905-0.348,3.782-0.697,5.64l-8.863-2.482c0.212-1.252,0.366-2.529,0.439-3.82L535.28,507.744z"/>
	<g>
		<path id="XMLID_12_" fill="#FFFFFF" d="M526.562,506.952c-0.036,0.704-0.106,1.397-0.211,2.083l4.443,1.235
			c0.156-0.985,0.266-1.981,0.317-2.983l-0.008,0.152c0.038-0.634,0.065-1.27,0.065-1.905c0.008-7.578-2.809-14.687-7.903-20.039
			c-4.542-4.767-10.42-7.616-16.74-8.175l-0.403,4.866c11.448,1.016,20.478,11.104,20.478,23.349c0,0.528-0.02,1.058-0.055,1.583
			L526.562,506.952z"/>
		<g>
			<g id="XMLID_9_">
				<path id="XMLID_18_" fill="#FFFFFF" d="M517.884,506.503c0.026-0.321,0.034-0.644,0.034-0.969
					c0-7.411-5.536-13.504-12.554-14.11l0.4-4.864c9.357,0.82,16.732,9.016,16.724,18.974c0,0.43-0.018,0.861-0.045,1.291
					l0.017-0.176c-0.027,0.421-0.065,0.839-0.109,1.252l-4.467-1.252c0.008-0.107,0.008-0.224,0.015-0.331L517.884,506.503z"/>
			</g>
		</g>
		<g id="XMLID_1_">
			<path id="XMLID_44_" fill="#FFFFFF" d="M408.147,470.466h2.156l4.294,16.171l6.011-16.171h0.439l5.949,16.171l4.368-16.171h2.14
				l-6.032,22.442h-0.392l-6.233-16.984l-6.35,16.984h-0.394L408.147,470.466z"/>
			<path id="XMLID_47_" fill="#FFFFFF" d="M437.404,470.466h2.103v20.283h8.079v2.168h-10.181V470.466z"/>
			<path id="XMLID_51_" fill="#FFFFFF" d="M459.49,470.466l9.799,22.442h-2.268l-3.298-7.382h-9.047l-3.271,7.382h-2.34
				l9.917-22.442H459.49z M459.228,475.231l-3.602,8.125h7.184L459.228,475.231z"/>
			<path id="XMLID_54_" fill="#FFFFFF" d="M472.549,492.908v-22.442h0.457l13.981,17.209v-17.209h2.073v22.442h-0.473
				l-13.862-16.993v16.993H472.549z"/>
		</g>
		<path id="XMLID_16_" fill="#FFFFFF" d="M408,495.008h10.883v3.946h-3.59v17.091h-3.802v-17.091H408V495.008z"/>
		<path id="XMLID_19_" fill="#FFFFFF" d="M421.433,495.008h3.801v7.939h6.58v-7.939h3.793v21.045h-3.793v-9.228h-6.58v9.228h-3.801
			V495.008z"/>
		<path id="XMLID_30_" fill="#FFFFFF" d="M440.111,495.008h10.746v3.916h-7.029v3.809h7.029v3.851h-7.029v5.534h7.029v3.936h-10.746
			V495.008z"/>
		<path id="XMLID_36_" fill="#FFFFFF" d="M454.604,495.008h3.975c2.175,0,3.72,0.206,4.643,0.625
			c0.922,0.42,1.663,1.104,2.228,2.073c0.558,0.964,0.842,2.1,0.842,3.416c0,1.389-0.31,2.542-0.932,3.47
			c-0.622,0.927-1.553,1.629-2.804,2.107l4.661,9.354h-4.095l-4.432-8.914h-0.346v8.914h-3.746v-21.045H454.604z M458.35,503.23
			h1.179c1.187,0,2.011-0.164,2.457-0.498c0.449-0.33,0.678-0.889,0.678-1.659c0-0.459-0.109-0.86-0.339-1.203
			c-0.219-0.34-0.521-0.584-0.896-0.732c-0.375-0.146-1.062-0.225-2.057-0.225h-1.022V503.23L458.35,503.23z"/>
		<path id="XMLID_39_" fill="#FFFFFF" d="M472.168,495.008h3.651l4.571,14.68l4.606-14.68h3.645l3.3,21.037h-3.628l-2.111-13.291
			l-4.184,13.291h-3.302l-4.148-13.291l-2.164,13.291h-3.656L472.168,495.008z"/>
		<path id="XMLID_41_" fill="#FFFFFF" d="M504.223,494.471c2.785,0,5.182,1.075,7.181,3.234c2.003,2.156,3.007,4.784,3.007,7.879
			c0,3.068-0.989,5.675-2.972,7.794c-1.971,2.13-4.375,3.195-7.198,3.195c-2.953,0-5.411-1.096-7.366-3.272
			c-1.955-2.188-2.934-4.777-2.934-7.783c0-2.014,0.458-3.869,1.37-5.548c0.916-1.68,2.167-3.027,3.757-4.014
			C500.666,494.969,502.376,494.471,504.223,494.471z M504.177,498.397c-1.82,0-3.357,0.674-4.597,2.031
			c-1.243,1.357-1.865,3.076-1.865,5.164c0,2.326,0.784,4.173,2.348,5.521c1.214,1.054,2.604,1.594,4.178,1.594
			c1.78,0,3.288-0.686,4.541-2.064c1.252-1.373,1.87-3.066,1.87-5.078c0-2.003-0.629-3.701-1.887-5.088
			C507.513,499.09,505.983,498.397,504.177,498.397z"/>
	</g>
	<polygon fill="#FFFFFF" points="546,526.426 508.645,526.387 509.551,523.426 546,523.453 	"/>
	<polygon fill="#FFFFFF" points="406,523.479 444.012,522.729 444.348,525 406,525 	"/>
	<path fill="#FFFFFF" d="M454.74,531h-7.246c-0.696,0-1.271-0.248-1.731-0.749c-0.457-0.498-0.685-1.114-0.685-1.844
		c0-0.209,0.021-0.413,0.062-0.619l0.901-4.571c0.176-0.867,0.627-1.618,1.351-2.257c0.723-0.639,1.487-0.955,2.292-0.955h7.229
		l-0.429,2.199h-7.196c-0.273,0-0.528,0.104-0.768,0.316c-0.241,0.215-0.387,0.465-0.44,0.76l-0.875,4.441
		c-0.011,0.074-0.017,0.149-0.017,0.218c0,0.234,0.074,0.44,0.225,0.608s0.342,0.253,0.574,0.253h7.183L454.74,531z M467.046,531
		h-7.248c-0.694,0-1.273-0.248-1.731-0.749c-0.458-0.498-0.686-1.114-0.686-1.844c0-0.209,0.021-0.413,0.063-0.619l1.537-7.783
		h2.028l-1.502,7.717c-0.013,0.074-0.018,0.141-0.018,0.198c0,0.251,0.075,0.46,0.227,0.628c0.15,0.168,0.34,0.253,0.574,0.253
		h7.185L467.046,531z M479.944,527.788c-0.166,0.853-0.605,1.599-1.332,2.243c-0.722,0.644-1.485,0.969-2.292,0.969h-4.257
		c-0.697,0-1.274-0.248-1.732-0.749c-0.457-0.498-0.684-1.114-0.684-1.844c0-0.209,0.018-0.413,0.06-0.619l0.901-4.571
		c0.176-0.867,0.626-1.618,1.352-2.257c0.723-0.639,1.486-0.955,2.292-0.955h4.237c0.696,0,1.272,0.248,1.728,0.746
		c0.459,0.501,0.689,1.114,0.689,1.847c0,0.206-0.022,0.413-0.062,0.619L479.944,527.788z M477.907,527.719l0.875-4.441
		c0.055-0.292,0.004-0.542-0.153-0.757c-0.157-0.212-0.37-0.316-0.645-0.316h-4.132c-0.257,0-0.511,0.104-0.756,0.316
		c-0.246,0.215-0.394,0.465-0.45,0.76l-0.875,4.441c-0.011,0.074-0.015,0.149-0.015,0.218c0,0.234,0.075,0.44,0.223,0.608
		c0.15,0.168,0.342,0.253,0.573,0.253h4.151c0.257,0,0.507-0.11,0.745-0.33C477.686,528.25,477.839,528,477.907,527.719z
		 M493.763,520.005L491.594,531h-7.246c-0.697,0-1.277-0.248-1.729-0.749c-0.459-0.498-0.687-1.114-0.687-1.844
		c0-0.209,0.019-0.413,0.062-0.619l1.534-7.783h2.046l-1.515,7.717c-0.014,0.074-0.019,0.141-0.019,0.201
		c0,0.248,0.075,0.457,0.224,0.625s0.34,0.253,0.573,0.253h5.141l1.739-8.796H493.763z M505.819,527.788
		c-0.161,0.853-0.602,1.599-1.328,2.243c-0.723,0.644-1.488,0.969-2.292,0.969h-7.247l2.171-10.995h7.246
		c0.696,0,1.272,0.248,1.729,0.746c0.458,0.501,0.685,1.114,0.685,1.847c0,0.206-0.018,0.413-0.062,0.619L505.819,527.788z
		 M503.785,527.719l0.875-4.441c0.055-0.292,0.006-0.542-0.153-0.757c-0.154-0.212-0.37-0.316-0.64-0.316h-5.106l-1.323,6.597h5.144
		c0.257,0,0.504-0.11,0.745-0.33C503.563,528.25,503.717,528,503.785,527.719z"/>
</g>
</svg>
