<?xml version="1.0" encoding="utf-8"?>
<!-- Generator: Adobe Illustrator 19.0.0, SVG Export Plug-In . SVG Version: 6.00 Build 0)  -->
<svg version="1.1" id="Nono-Icon_xA0_Bild_1_" xmlns="http://www.w3.org/2000/svg" xmlns:xlink="http://www.w3.org/1999/xlink"
	 x="0px" y="0px" viewBox="0 0 729.9 729.9" style="enable-background:new 0 0 729.9 729.9;" xml:space="preserve">
<style type="text/css">
	.st0{fill:#333333;}
	.st1{fill:#FCFCFC;}
	.st2{fill:#E10613;}
</style>
<g>
	<path class="st0" d="M1.3,0.9c243.3,0,486.6,0,729.9,0c0,241.3,0,482.6,0.1,723.9c0,5-1.1,6.2-6.1,6.2
		c-239.3-0.1-478.6-0.1-717.9,0c-5,0-6.1-1.2-6.1-6.2C1.3,483.5,1.3,242.2,1.3,0.9z M85.6,297.3c0.3-0.1,0.5-0.1,0.6-0.2
		c1.6-3.4,3.3-6.9,4.9-10.4c18.9-40.1,45.9-73.8,81.7-99.8c48.3-35.2,102.4-51.8,162.3-48.3c46.1,2.7,88.7,16.6,125.7,43.8
		c90,66,125.3,155.6,110.8,265.5c-0.6,4.2,0.6,5.4,4.4,6.4c22.8,5.8,45.5,11.7,68.1,17.9c4.5,1.2,6.1,0.4,6.9-4.3
		c4.2-24.7,6.2-49.5,5.5-74.6c-1.2-43.5-10.6-85-26.3-125.5c-23.7-61.3-64.3-106.9-123.7-135c-68.9-32.7-141.1-40.6-215.4-23.7
		c-63.1,14.3-117.4,44.1-159.4,94.6c-21.7,26-36.9,55.2-45.4,88C85.9,293.4,84.7,295.2,85.6,297.3z M389.6,405
		c0-50.7-39.8-91.6-88.9-91.6c-52.4,0-92.1,39.5-92.6,91.1c-0.5,45.8,36.9,92,92.5,91.3C350.1,495.1,389.6,455.4,389.6,405z
		 M538.5,406.5c0-38.3-7.5-73.6-24-105C474,224.1,409.8,180.8,323.3,170.2c-3.2-0.4-3.6,1-3.8,3.5c-0.6,7.8-1.3,15.6-1.9,23.4
		c-0.3,4.3-2.3,9.7-0.3,12.6c2,3,8,1.6,12.3,2.3c43.8,6.9,82,25.6,112.8,57.5c43.1,44.6,61.3,98,54,159.8c-0.3,2.8,0,4.1,3.1,4.9
		c10.8,2.6,21.6,5.6,32.3,8.5c2.8,0.8,3.7,0.1,4.2-2.8C537.6,428,538.5,416.1,538.5,406.5z M461.8,402.9
		c-0.6-79.6-64.1-148.2-144.4-156c-3.6-0.3-4.6,0.8-4.8,4.1c-0.7,10-1.2,20-2.6,29.8c-0.7,5.1,0.7,6.3,5.5,6.9
		c63.7,8.1,109.1,63.2,105.1,122.5c-0.2,2.3,0.6,3.3,2.7,3.8c11.3,2.9,22.6,5.8,33.8,8.9c3,0.8,3.4-0.4,3.6-2.8
		C461,414.5,461.4,408.7,461.8,402.9z M324.9,629.8c6.9,0,13.3-0.3,19.8,0.1c3.8,0.2,4.7-1.4,5.3-4.6c2.9-14.5,6-29,9.1-43.5
		c2.5-11.9,5.1-23.8,7.6-35.7c4.4-20.8-8-36.1-29.1-36.1c-15.8,0-31.7,0-47.5,0c-19,0-38.5,14.5-42.8,33
		c-6.4,27.7-12,55.7-17.9,83.5c-0.6,2.9,0.5,3.3,3,3.3c5.3-0.1,10.7-0.4,16,0.1c3.9,0.3,5-1.3,5.7-4.8c5.3-25.8,10.8-51.5,16.3-77.2
		c2-9.3,7.2-13.7,16.7-13.9c6.5-0.1,13,0,19.5,0c8.8,0,17.7-0.1,26.5,0.2c6,0.2,10.2,4,9.8,9.1c-0.4,4.8-0.8,10.1-3.2,13.9
		c-1.6,2.5-6.9,0.7-10.5,0.8c-4.2,0.2-8.3,0-12.5,0c-12,0-24,0-36.5,0c1.9,6.9,3.9,13.2,5.4,19.7c0.8,3.4,2.2,4.5,5.7,4.4
		c12.8-0.2,25.7,0.1,38.5-0.2c4.1-0.1,5,0.9,4.1,5C330.7,601,327.9,615.2,324.9,629.8z M576.9,629.8c8,0,16,0,24,0
		c20.4,0,38.9-14.5,43.5-34.5c3.8-16.7,7.3-33.5,10.7-50.3c3.9-19.6-8.7-34.9-28.5-34.9c-16,0-32,0-48,0c-18.7,0-38,13.7-42.6,31.9
		c-4.8,18.5-8.7,37.3-11.9,56.2c-3,17.6,10,31.7,27.9,31.7C560.2,629.8,568.5,629.8,576.9,629.8z M180.6,629.8c7.5,0,14.6,0,21.8,0
		c2,0,2.5-0.9,2.9-2.6c5.9-28.2,12.3-56.3,17.6-84.6c3.4-18.1-9.8-32.6-28.1-32.6c-26.7,0-53.3,0.1-80-0.1c-4.1,0-5.3,1.4-6.1,5.1
		c-4.4,21.7-9.1,43.3-13.7,65c-3.5,16.4-7,32.9-10.5,49.8c6.1,0,11.7-0.4,17.3,0.1c5.3,0.5,7.3-1.2,8.3-6.6
		c5.7-28.4,11.8-56.7,17.8-85.1c0.5-2.3,0.6-4.4,4.1-4.4c18.7,0.2,37.3,0,56,0.2c8.3,0.1,11.7,4.7,10.1,12.9
		c-1.7,8.5-3.6,16.9-5.4,25.4C188.7,591.3,184.7,610.4,180.6,629.8z M373.1,629.8c6.5,0,12.6-0.4,18.7,0.1c4.5,0.4,5.8-1.5,6.6-5.5
		c5.9-28.8,12.1-57.6,18.2-86.5c0.5-2.4,1-4.1,4.3-4.1c18.3,0.2,36.6,0,55,0.1c9.2,0.1,12.5,4.6,10.6,13.6
		c-5.5,26.2-11,52.4-16.7,78.6c-0.7,3-0.1,3.7,2.9,3.6c5.8-0.2,11.7-0.2,17.5,0c2.2,0.1,3.2-0.6,3.7-2.8
		c5.9-28.2,12.3-56.3,17.5-84.5c3.4-18-9.8-32.4-28.2-32.4c-26.5,0-53,0.1-79.4-0.1c-4.1,0-5.7,1-6.5,5.2
		c-3.6,18.3-7.6,36.5-11.5,54.7C381.6,589.6,377.4,609.5,373.1,629.8z M640.6,494.4c3.2,0.8,4-0.3,4.5-2.2c0.6-2.6,1.3-5.2,1.9-7.8
		c1.9-8.1,3-7.1-5.8-9.4c-36.7-9.6-73.5-19.1-110.2-28.7c-44.2-11.5-88.3-23-132.4-34.6c-3.6-1-5.3-0.9-5.6,3.6
		c-0.5,6.8-1.9,13.6-4.7,19.9c-1.9,4.3-1,5.7,3.6,6.7C462,456.6,532,471.5,602,486.4C615.2,489.1,628.4,491.9,640.6,494.4z
		 M84.9,299.5c-0.1,0.1-0.3,0.2-0.3,0.4c0,0.3,0.1,0.6,0.1,0.9c0.1-0.1,0.3-0.2,0.3-0.3C85,300.1,84.9,299.8,84.9,299.5z"/>
	<path class="st1" d="M1.3,0.9c0,241.3,0,482.6-0.1,723.9c0,5,1.1,6.2,6.1,6.2c239.3-0.1,478.6-0.1,717.9,0c5,0,6.1-1.2,6.1-6.2
		c-0.1-241.3-0.1-482.6-0.1-723.9c0.3,0.2,1-0.5,1,0.5c0,1.3,0,2.7,0,4c0,241,0,481.9,0.1,722.9c0,3.7-0.8,4.6-4.6,4.6
		c-241-0.1-481.9-0.1-722.9,0c-3.7,0-4.6-0.8-4.6-4.6c0.1-241,0.1-481.9,0.2-722.9C0.4,3.9-0.8,2,1.3,0.9z"/>
	<path class="st2" d="M85.6,297.3c-1-2,0.2-3.8,0.7-5.6c8.5-32.8,23.7-62,45.4-88c42-50.4,96.4-80.2,159.4-94.6
		c74.3-16.8,146.4-8.9,215.4,23.7c59.4,28.1,100,73.7,123.7,135c15.7,40.5,25.1,82,26.3,125.5c0.7,25.1-1.4,49.9-5.5,74.6
		c-0.8,4.6-2.3,5.5-6.9,4.3c-22.7-6.2-45.4-12.1-68.1-17.9c-3.8-1-4.9-2.1-4.4-6.4c14.5-109.9-20.8-199.5-110.8-265.5
		c-37.1-27.2-79.7-41.1-125.7-43.8c-59.9-3.5-114,13.1-162.3,48.3C137,213,110,246.6,91.1,286.7c-1.6,3.5-3.2,6.9-4.9,10.4
		C86.2,297.2,85.9,297.2,85.6,297.3z"/>
	<path class="st1" d="M389.6,405c0,50.4-39.5,90.1-89,90.8c-55.6,0.7-93-45.4-92.5-91.3c0.5-51.6,40.2-91.1,92.6-91.1
		C349.8,313.4,389.5,354.3,389.6,405z M356.3,404.5c0-32.9-25.2-58.7-57.3-58.7c-33,0-57.3,25-57.3,58.8c0,33.4,24.8,58.4,57.9,58.3
		C331.6,463,356.4,437.5,356.3,404.5z"/>
	<path class="st1" d="M538.5,406.5c-0.1,9.6-1,21.5-2.7,33.4c-0.4,2.8-1.4,3.6-4.2,2.8c-10.7-3-21.5-5.9-32.3-8.5
		c-3.1-0.8-3.4-2.1-3.1-4.9c7.3-61.8-10.9-115.3-54-159.8c-30.8-31.9-68.9-50.6-112.8-57.5c-4.2-0.7-10.3,0.7-12.3-2.3
		c-1.9-2.8,0-8.3,0.3-12.6c0.6-7.8,1.3-15.6,1.9-23.4c0.2-2.5,0.6-3.8,3.8-3.5c86.5,10.6,150.7,53.9,191.3,131.2
		C531,332.9,538.5,368.2,538.5,406.5z"/>
	<path class="st1" d="M461.8,402.9c-0.4,5.8-0.8,11.6-1.1,17.4c-0.1,2.4-0.6,3.6-3.6,2.8c-11.2-3.1-22.5-6-33.8-8.9
		c-2.2-0.6-2.9-1.5-2.7-3.8c4-59.3-41.4-114.5-105.1-122.5c-4.8-0.6-6.2-1.9-5.5-6.9c1.4-9.9,2-19.9,2.6-29.8
		c0.2-3.3,1.2-4.5,4.8-4.1C397.7,254.7,461.1,323.3,461.8,402.9z"/>
	<path class="st1" d="M324.9,629.8c3-14.6,5.8-28.8,9-42.9c0.9-4.1,0-5.1-4.1-5c-12.8,0.2-25.7-0.1-38.5,0.2
		c-3.6,0.1-4.9-1.1-5.7-4.4c-1.5-6.4-3.5-12.8-5.4-19.7c12.5,0,24.5,0,36.5,0c4.2,0,8.3,0.1,12.5,0c3.6-0.1,8.9,1.7,10.5-0.8
		c2.4-3.8,2.8-9.2,3.2-13.9c0.4-5.1-3.8-8.9-9.8-9.1c-8.8-0.3-17.7-0.1-26.5-0.2c-6.5,0-13-0.1-19.5,0c-9.5,0.2-14.7,4.6-16.7,13.9
		c-5.4,25.7-10.9,51.5-16.3,77.2c-0.7,3.4-1.8,5.1-5.7,4.8c-5.3-0.4-10.7-0.2-16-0.1c-2.5,0.1-3.6-0.4-3-3.3
		c6-27.8,11.5-55.8,17.9-83.5c4.3-18.5,23.8-33,42.8-33c15.8,0,31.7,0,47.5,0c21.1,0,33.5,15.4,29.1,36.1
		c-2.5,11.9-5.1,23.8-7.6,35.7c-3.1,14.5-6.2,29-9.1,43.5c-0.6,3.2-1.6,4.8-5.3,4.6C338.2,629.5,331.7,629.8,324.9,629.8z"/>
	<path class="st1" d="M576.9,629.8c-8.3,0-16.7,0-25,0c-17.8,0-30.9-14.1-27.9-31.7c3.2-18.9,7.1-37.6,11.9-56.2
		c4.7-18.2,23.9-31.9,42.6-31.9c16,0,32,0,48,0c19.8,0,32.5,15.3,28.5,34.9c-3.4,16.8-6.9,33.6-10.7,50.3
		c-4.5,20-23.1,34.5-43.5,34.5C592.9,629.8,584.9,629.8,576.9,629.8z M582.3,605.9C582.3,605.9,582.3,605.9,582.3,605.9
		c7.3,0,14.6,0.1,22,0c8.8-0.1,14.9-4.9,16.7-13.5c3.3-15.3,6.5-30.6,9.6-45.9c1.5-7.4-1.9-12.3-9.5-12.4c-16-0.3-32-0.3-47.9,0
		c-7.4,0.1-12.8,5.1-14.3,12.4c-3.4,15.6-6.7,31.2-9.9,46.9c-1.6,7.6,2.2,12.3,10,12.5C566.6,606.1,574.4,605.9,582.3,605.9z"/>
	<path class="st1" d="M180.6,629.8c4.1-19.4,8.1-38.5,12.2-57.5c1.8-8.5,3.7-16.9,5.4-25.4c1.7-8.1-1.8-12.8-10.1-12.9
		c-18.7-0.2-37.3,0-56-0.2c-3.5,0-3.6,2.1-4.1,4.4c-6,28.3-12.2,56.6-17.8,85.1c-1.1,5.4-3,7.1-8.3,6.6c-5.6-0.5-11.3-0.1-17.3-0.1
		c3.6-16.9,7.1-33.3,10.5-49.8c4.6-21.7,9.3-43.3,13.7-65c0.8-3.7,2-5.1,6.1-5.1c26.7,0.2,53.3,0.1,80,0.1
		c18.3,0,31.5,14.5,28.1,32.6c-5.3,28.3-11.7,56.4-17.6,84.6c-0.4,1.7-0.9,2.6-2.9,2.6C195.2,629.8,188.1,629.8,180.6,629.8z"/>
	<path class="st1" d="M373.1,629.8c4.3-20.3,8.5-40.2,12.7-60c3.9-18.2,7.9-36.4,11.5-54.7c0.8-4.2,2.4-5.2,6.5-5.2
		c26.5,0.2,53,0.1,79.4,0.1c18.4,0,31.6,14.4,28.2,32.4c-5.3,28.3-11.7,56.4-17.5,84.5c-0.5,2.3-1.5,2.9-3.7,2.8
		c-5.8-0.2-11.7-0.2-17.5,0c-3,0.1-3.5-0.6-2.9-3.6c5.7-26.2,11.1-52.4,16.7-78.6c1.9-9-1.5-13.5-10.6-13.6
		c-18.3-0.2-36.6,0.1-55-0.1c-3.3,0-3.8,1.7-4.3,4.1c-6.1,28.8-12.3,57.6-18.2,86.5c-0.8,4-2.1,5.9-6.6,5.5
		C385.7,629.4,379.6,629.8,373.1,629.8z"/>
	<path class="st2" d="M640.6,494.4c-12.2-2.6-25.4-5.3-38.6-8.1c-70-14.8-140.1-29.7-210.1-44.4c-4.7-1-5.5-2.4-3.6-6.7
		c2.7-6.3,4.2-13.1,4.7-19.9c0.3-4.5,2-4.6,5.6-3.6c44.1,11.6,88.3,23.1,132.4,34.6c36.7,9.6,73.5,19.1,110.2,28.7
		c8.8,2.3,7.7,1.3,5.8,9.4c-0.6,2.6-1.3,5.2-1.9,7.8C644.7,494.1,643.8,495.3,640.6,494.4z"/>
	<path class="st2" d="M84.9,299.5c0.1,0.3,0.1,0.6,0.1,0.9c0,0.1-0.2,0.2-0.3,0.3c-0.1-0.3-0.1-0.6-0.1-0.9
		C84.6,299.8,84.8,299.7,84.9,299.5z"/>
	<path class="st0" d="M356.3,404.5c0,33-24.7,58.5-56.8,58.5c-33.2,0-57.9-24.9-57.9-58.3c0-33.9,24.4-58.8,57.3-58.8
		C331.2,345.8,356.3,371.6,356.3,404.5z M267,404.2c0,18,14.3,32.4,32.2,32.5c18,0.1,32.7-14.6,32.8-32.6
		c0.1-17.9-14.7-32.4-33-32.3C281,371.8,267,386,267,404.2z"/>
	<path class="st0" d="M582.3,605.9c-7.8,0-15.6,0.1-23.5,0c-7.8-0.2-11.5-4.9-10-12.5c3.2-15.6,6.5-31.3,9.9-46.9
		c1.6-7.3,6.9-12.2,14.3-12.4c16-0.3,32-0.3,47.9,0c7.6,0.1,11,5,9.5,12.4c-3.1,15.3-6.3,30.6-9.6,45.9c-1.8,8.5-7.9,13.4-16.7,13.5
		C596.9,606,589.6,605.9,582.3,605.9C582.3,605.9,582.3,605.9,582.3,605.9z"/>
	<path class="st2" d="M267,404.2c0-18.2,14-32.4,32.1-32.5c18.2-0.1,33.1,14.5,33,32.3c-0.1,18-14.9,32.7-32.8,32.6
		C281.3,436.6,267,422.2,267,404.2z"/>
</g>
</svg>
